<svg width="1200" height="560" viewBox="0 0 1200 560" xmlns="http://www.w3.org/2000/svg" font-family="-apple-system, BlinkMacSystemFont, 'Segoe UI', Roboto, Helvetica, Arial, sans-serif">
  <rect x="0" y="0" width="1200" height="560" rx="20" fill="#f6f6f4"/>
  <rect x="20" y="20" width="1160" height="520" rx="14" fill="none" stroke="#d8d8d3" stroke-width="1.5" stroke-dasharray="4 4"/>

  <text x="52" y="66" font-size="12" font-weight="700" letter-spacing="2" fill="#8a8a82">CORE FEATURES</text>

  <text x="52" y="106" font-size="30" font-weight="800" fill="#151512">One budget for a whole agent workflow,</text>
  <text x="52" y="140" font-size="30" font-weight="800" fill="#151512">
    <tspan fill="#151512">enforced </tspan><tspan fill="#a9791c">before each call</tspan><tspan fill="#151512">.</tspan>
  </text>

  <text x="1148" y="70" font-size="13" fill="#6b6b63" text-anchor="end">Governs the run, not the request: one ledger,</text>
  <text x="1148" y="90" font-size="13" fill="#6b6b63" text-anchor="end">checked before every call, shared across every agent.</text>

  <!-- grid -->
  <g stroke="#e2e2dd" stroke-width="1">
    <line x1="52" y1="176" x2="1148" y2="176"/>
    <line x1="52" y1="356" x2="1148" y2="356"/>
    <line x1="52" y1="536" x2="1148" y2="536"/>
    <line x1="416" y1="176" x2="416" y2="536"/>
    <line x1="784" y1="176" x2="784" y2="536"/>
  </g>

  <!-- card template macro via repeated groups -->
  <!-- Card 1 -->
  <g transform="translate(52,196)">
    <rect x="0" y="0" width="30" height="30" rx="7" fill="#151512"/>
    <path d="M8 15 L13 20 L22 9" stroke="#f6d34a" stroke-width="2.4" fill="none" stroke-linecap="round" stroke-linejoin="round"/>
    <text x="0" y="56" font-size="10.5" font-weight="700" letter-spacing="1.5" fill="#9a9a90">BEFORE THE CALL</text>
    <text x="0" y="80" font-size="17" font-weight="700" fill="#151512">Enforced pre-call</text>
    <text x="0" y="104" font-size="12.5" fill="#5c5c54">Checks the running total before</text>
    <text x="0" y="122" font-size="12.5" fill="#5c5c54">each call, not after. It refuses</text>
    <text x="0" y="140" font-size="12.5" fill="#5c5c54">the call that would break budget.</text>
  </g>

  <!-- Card 2 -->
  <g transform="translate(420,196)">
    <rect x="0" y="0" width="30" height="30" rx="7" fill="#151512"/>
    <circle cx="15" cy="15" r="8" fill="none" stroke="#f6d34a" stroke-width="2.4"/>
    <line x1="15" y1="15" x2="15" y2="9" stroke="#f6d34a" stroke-width="2.2" stroke-linecap="round"/>
    <line x1="15" y1="15" x2="19" y2="17" stroke="#f6d34a" stroke-width="2.2" stroke-linecap="round"/>
    <text x="0" y="56" font-size="10.5" font-weight="700" letter-spacing="1.5" fill="#9a9a90">WHOLE RUN</text>
    <text x="0" y="80" font-size="17" font-weight="700" fill="#151512">Run-scoped budget</text>
    <text x="0" y="104" font-size="12.5" fill="#5c5c54">One cap for the whole workflow,</text>
    <text x="0" y="122" font-size="12.5" fill="#5c5c54">not per request, so cheap calls</text>
    <text x="0" y="140" font-size="12.5" fill="#5c5c54">cannot quietly add up.</text>
  </g>

  <!-- Card 3 -->
  <g transform="translate(788,196)">
    <rect x="0" y="0" width="30" height="30" rx="7" fill="#151512"/>
    <circle cx="8" cy="10" r="3.4" fill="#f6d34a"/>
    <circle cx="22" cy="10" r="3.4" fill="#f6d34a"/>
    <circle cx="15" cy="22" r="3.4" fill="#f6d34a"/>
    <path d="M8 10 L15 22 M22 10 L15 22" stroke="#f6d34a" stroke-width="1.6"/>
    <text x="0" y="56" font-size="10.5" font-weight="700" letter-spacing="1.5" fill="#9a9a90">MULTI-AGENT</text>
    <text x="0" y="80" font-size="17" font-weight="700" fill="#151512">Shared across processes</text>
    <text x="0" y="104" font-size="12.5" fill="#5c5c54">Research, summarize and review</text>
    <text x="0" y="122" font-size="12.5" fill="#5c5c54">can be three services and still</text>
    <text x="0" y="140" font-size="12.5" fill="#5c5c54">draw from one ledger.</text>
  </g>

  <!-- Card 4 -->
  <g transform="translate(52,376)">
    <rect x="0" y="0" width="30" height="30" rx="7" fill="#151512"/>
    <path d="M7 22 L15 8 L23 22" stroke="#f6d34a" stroke-width="2.4" fill="none" stroke-linecap="round" stroke-linejoin="round"/>
    <text x="0" y="56" font-size="10.5" font-weight="700" letter-spacing="1.5" fill="#9a9a90">POLICY</text>
    <text x="0" y="80" font-size="17" font-weight="700" fill="#151512">Steers, not just stops</text>
    <text x="0" y="104" font-size="12.5" fill="#5c5c54">Shrinks the next prompt, swaps</text>
    <text x="0" y="122" font-size="12.5" fill="#5c5c54">to a cheaper model, or flags a</text>
    <text x="0" y="140" font-size="12.5" fill="#5c5c54">loop. Stopping is the last resort.</text>
  </g>

  <!-- Card 5 -->
  <g transform="translate(420,376)">
    <rect x="0" y="0" width="30" height="30" rx="7" fill="#151512"/>
    <rect x="7" y="7" width="16" height="16" rx="2" fill="none" stroke="#f6d34a" stroke-width="2.2"/>
    <line x1="10" y1="13" x2="20" y2="13" stroke="#f6d34a" stroke-width="1.6"/>
    <line x1="10" y1="17" x2="17" y2="17" stroke="#f6d34a" stroke-width="1.6"/>
    <text x="0" y="56" font-size="10.5" font-weight="700" letter-spacing="1.5" fill="#9a9a90">SPEND</text>
    <text x="0" y="80" font-size="17" font-weight="700" fill="#151512">Tool calls count too</text>
    <text x="0" y="104" font-size="12.5" fill="#5c5c54">Not just model calls. Search</text>
    <text x="0" y="122" font-size="12.5" fill="#5c5c54">results and file reads that land</text>
    <text x="0" y="140" font-size="12.5" fill="#5c5c54">in the next prompt are real spend.</text>
  </g>

  <!-- Card 6 -->
  <g transform="translate(788,376)">
    <rect x="0" y="0" width="30" height="30" rx="7" fill="#151512"/>
    <circle cx="15" cy="15" r="3" fill="#f6d34a"/>
    <circle cx="7" cy="8" r="2.2" fill="#f6d34a"/>
    <circle cx="23" cy="8" r="2.2" fill="#f6d34a"/>
    <circle cx="7" cy="22" r="2.2" fill="#f6d34a"/>
    <circle cx="23" cy="22" r="2.2" fill="#f6d34a"/>
    <text x="0" y="56" font-size="10.5" font-weight="700" letter-spacing="1.5" fill="#9a9a90">EXTENSIBLE</text>
    <text x="0" y="80" font-size="17" font-weight="700" fill="#151512">Ten policies included</text>
    <text x="0" y="104" font-size="12.5" fill="#5c5c54">Each documented and swappable.</text>
    <text x="0" y="122" font-size="12.5" fill="#5c5c54">Add your own with the same</text>
    <text x="0" y="140" font-size="12.5" fill="#5c5c54">(Detector, Policy) shape.</text>
  </g>
</svg>
